<?xml version="1.0" encoding="UTF-8" standalone="no"?>
<svg width="886px" height="137px" viewBox="0 0 886 137" version="1.1" xmlns="http://www.w3.org/2000/svg" xmlns:xlink="http://www.w3.org/1999/xlink" xmlns:sketch="http://www.bohemiancoding.com/sketch/ns">
    <!-- Generator: Sketch 3.3.2 (12043) - http://www.bohemiancoding.com/sketch -->
    <title>SequoiaLogoOne</title>
    <desc>Created with Sketch.</desc>
    <defs></defs>
    <g id="Page-1" stroke="none" stroke-width="1" fill="none" fill-rule="evenodd" sketch:type="MSPage">
        <path d="M187.557819,37.390625 L187.557819,26 L206.893757,26 L206.893757,117.492676 L211.573643,117.492676 L211.573643,135.787354 C211.573643,135.787354 200.470129,135.821523 200.171543,135.787354 C185.956699,134.160645 187.065632,117.492676 187.065632,117.492676 L187.065632,93.0078125 C185.565624,96.101578 182.999244,98.8554567 179.366413,101.269531 C175.733582,103.683606 170.776601,104.890625 164.495319,104.890625 C155.6359,104.890625 148.089101,101.351598 141.854694,94.2734375 C135.620288,87.1952771 132.503132,77.7500591 132.503132,65.9375 C132.503132,53.1874363 135.632007,42.9922257 141.889851,35.3515625 C148.147694,27.7108993 155.870273,23.890625 165.057819,23.890625 C171.432851,23.890625 176.58905,25.4609218 180.526569,28.6015625 C182.823456,30.3828214 185.167182,33.3124796 187.557819,37.390625 Z M184.815632,78.875 C186.690641,74.9843555 187.628132,70.0625298 187.628132,64.109375 C187.628132,59.4218516 186.831265,55.226581 185.237507,51.5234375 C182.378118,44.8671542 177.362543,41.5390625 170.190632,41.5390625 C165.128107,41.5390625 161.061741,43.4843555 157.991413,47.375 C154.921085,51.2656445 153.385944,57.1718354 153.385944,65.09375 C153.385944,70.3906515 154.089062,74.7265456 155.495319,78.1015625 C158.120332,84.5234696 162.995284,87.734375 170.120319,87.734375 C177.010979,87.734375 181.909367,84.7812795 184.815632,78.875 L184.815632,78.875 Z" id="Path" fill="#57595B" sketch:type="MSShapeGroup"></path>
        <path d="M21.8734455,78.03125 C22.2953226,81.5937678 23.209376,84.1249925 24.615633,85.625 C27.1000204,88.2968884 31.6937245,89.6328125 38.396883,89.6328125 C42.3344027,89.6328125 45.4632777,89.0468809 47.7836018,87.875 C50.1039259,86.7031191 51.2640705,84.9453242 51.2640705,82.6015625 C51.2640705,80.3515512 50.3265799,78.6406309 48.4515705,77.46875 C46.5765611,76.2968691 39.6156932,74.2812643 27.568758,71.421875 C18.8968397,69.2656142 12.7797133,66.5703287 9.21719551,63.3359375 C5.6546777,60.1484216 3.87344551,55.5547175 3.87344551,49.5546875 C3.87344551,42.4765271 6.65076149,36.3945567 12.2054768,31.3085938 C17.760192,26.2226308 25.5765201,23.6796875 35.6546955,23.6796875 C45.2172433,23.6796875 53.0101341,25.5898246 59.0336018,29.4101562 C65.0570694,33.2304879 68.5140661,39.8280781 69.4046955,49.203125 L49.365633,49.203125 C49.0843816,46.6249871 48.3578264,44.585945 47.1859455,43.0859375 C44.9828095,40.3671739 41.232847,39.0078125 35.9359455,39.0078125 C31.5765487,39.0078125 28.471111,39.6874932 26.6195393,41.046875 C24.7679675,42.4062568 23.8421955,43.9999909 23.8421955,45.828125 C23.8421955,48.1250115 24.8265607,49.7890573 26.7953205,50.8203125 C28.7640804,51.8984429 35.7249482,53.7499869 47.678133,56.375 C55.6469229,58.2500094 61.6234256,61.0859185 65.6078205,64.8828125 C69.5453402,68.7265817 71.5140705,73.5312212 71.5140705,79.296875 C71.5140705,86.890663 68.68988,93.0898197 63.0414143,97.8945312 C57.3929485,102.699243 48.6625671,105.101562 36.850008,105.101562 C24.8030728,105.101562 15.9086305,102.558619 10.1664143,97.4726562 C4.42419805,92.3866933 1.55313301,85.9062894 1.55313301,78.03125 L21.8734455,78.03125 Z" id="Path" fill="#57595B" sketch:type="MSShapeGroup"></path>
        <path d="M132.067195,38.7265625 C135.06721,43.2734602 137.012503,48.546845 137.903132,54.546875 C138.41876,58.0625176 138.629695,63.124967 138.535945,69.734375 L86.0828199,69.734375 C86.3640713,77.4219134 88.7781097,82.8124845 93.3250074,85.90625 C93.8070515,86.2412298 94.3061827,86.547016 94.8224015,86.8236089 C97.2678929,88.1339167 100.096868,88.7890625 103.309382,88.7890625 C107.434403,88.7890625 110.785932,87.6171992 113.36407,85.2734375 C114.770327,84.0078062 116.012502,82.2500113 117.090632,80 L137.55157,80 C137.035942,84.5468977 134.668779,89.1640391 130.450007,93.8515625 C123.887475,101.304725 114.700067,105.03125 102.887507,105.03125 C93.1374587,105.03125 84.5359822,101.890656 77.0828199,95.609375 C69.6296577,89.3280936 65.9031324,79.1094458 65.9031324,64.953125 C65.9031324,51.6874337 69.2663801,41.5156604 75.9929762,34.4375 C82.7195723,27.3593396 91.4499538,23.8203125 102.184382,23.8203125 C108.559414,23.8203125 114.301544,25.015613 119.410945,27.40625 C124.520345,29.796887 128.739053,33.5702867 132.067195,38.7265625 Z M86.068758,57.7109375 L117.217196,57.7109375 C116.889069,52.414036 115.283616,48.394545 112.400789,45.6523438 C109.517962,42.9101425 105.943779,41.5390625 101.678133,41.5390625 C97.0374848,41.5390625 93.4398645,42.992173 90.8851643,45.8984375 C88.330464,48.804702 86.7250113,52.7421627 86.068758,57.7109375 Z" id="Path" fill="#57595B" sketch:type="MSShapeGroup"></path>
        <path d="M231.165631,25.859375 L231.165631,72.0546875 C231.165631,76.4140843 231.681251,79.6953015 232.712506,81.8984375 C234.54064,85.789082 238.126542,87.734375 243.470319,87.734375 C250.314103,87.734375 255.001556,84.9687777 257.532819,79.4375 C258.845325,76.437485 259.501569,72.4765871 259.501569,67.5546875 L259.501569,25.859375 L279.821881,25.859375 L279.821881,103.595703 L260.345319,103.595703 L260.345319,91.671875 C260.157818,91.9062512 259.689073,92.6093691 258.939069,93.78125 C258.189065,94.9531309 257.298449,95.9843705 256.267194,96.875 C253.126553,99.6875141 250.091427,101.60937 247.161725,102.640625 C244.232023,103.67188 240.798463,104.1875 236.860944,104.1875 C225.517137,104.1875 217.876588,100.109416 213.939069,91.953125 C211.735933,87.4531025 210.634381,80.8203563 210.634381,72.0546875 L210.634381,25.859375 L231.165631,25.859375 Z" id="Path" fill="#57595B" sketch:type="MSShapeGroup"></path>
        <path d="M348.671881,93.1835938 C342.203098,101.175821 332.382884,105.171875 319.210943,105.171875 C306.039002,105.171875 296.218788,101.175821 289.750006,93.1835938 C283.281223,85.1913663 280.046881,75.5703688 280.046881,64.3203125 C280.046881,53.2577572 283.281223,43.6719155 289.750006,35.5625 C296.218788,27.4530845 306.039002,23.3984375 319.210943,23.3984375 C332.382884,23.3984375 342.203098,27.4530845 348.671881,35.5625 C355.140663,43.6719155 358.375006,53.2577572 358.375006,64.3203125 C358.375006,75.5703688 355.140663,85.1913663 348.671881,93.1835938 L348.671881,93.1835938 Z M332.640631,82.109375 C335.781271,77.9374791 337.351568,72.0078509 337.351568,64.3203125 C337.351568,56.6327741 335.781271,50.7148645 332.640631,46.5664062 C329.49999,42.417948 325.000035,40.34375 319.140631,40.34375 C313.281226,40.34375 308.769553,42.417948 305.605474,46.5664062 C302.441396,50.7148645 300.859381,56.6327741 300.859381,64.3203125 C300.859381,72.0078509 302.441396,77.9374791 305.605474,82.109375 C308.769553,86.2812709 313.281226,88.3671875 319.140631,88.3671875 C325.000035,88.3671875 329.49999,86.2812709 332.640631,82.109375 L332.640631,82.109375 Z" id="Path" fill="#57595B" sketch:type="MSShapeGroup"></path>
        <path d="M378.920318,19.4921875 L358.600005,19.4921875 L358.600005,1 L378.920318,1 L378.920318,19.4921875 Z" id="Path" fill="#57595B" sketch:type="MSShapeGroup"></path>
        <path d="M358.600005,25.859375 L378.920318,25.859375 L378.920318,103.595703 L358.600005,103.595703 L358.600005,25.859375 Z" id="Path" fill="#57595B" sketch:type="MSShapeGroup"></path>
        <path d="M414.020317,55.8828125 C417.723461,55.4140602 420.371872,54.8281285 421.96563,54.125 C424.825019,52.9062439 426.254692,51.0078254 426.254692,48.4296875 C426.254692,45.2890468 425.164859,43.1210997 422.985161,41.9257812 C420.805462,40.7304628 417.606276,40.1328125 413.387505,40.1328125 C408.653106,40.1328125 405.301577,41.3046758 403.332817,43.6484375 C401.92656,45.3828212 400.989069,47.7265477 400.520317,50.6796875 L381.18438,50.6796875 C381.606257,43.976529 383.481238,38.4687716 386.80938,34.15625 C392.106281,27.4062162 401.19994,24.03125 414.09063,24.03125 C422.481297,24.03125 429.934347,25.6952959 436.450005,29.0234375 C442.965662,32.3515791 446.223442,38.6327663 446.223442,47.8671875 L446.223442,83.0234375 C446.223442,85.4609497 446.270317,88.4140452 446.364067,91.8828125 C446.504693,94.5078256 446.903126,96.2890578 447.55938,97.2265625 C447.891074,97.7004119 449.459604,99.5286589 451.400177,100.941772 C453.299002,102.324485 455.566978,103.294327 456.216095,103.595703 L450.512505,103.595703 L429.130932,103.595703 C428.521554,102.04882 427.684381,99.5000068 427.450005,98.140625 C427.215628,96.7812432 427.02813,95.2343837 426.887505,93.5 C424.121866,96.500015 420.934398,99.054677 417.325005,101.164062 C413.012483,103.64845 408.129658,104.603516 402.692131,104.603516 C395.754596,104.603516 390.032058,102.910176 385.508598,98.9492188 C380.985138,94.9882614 378.723442,89.3750363 378.723442,82.109375 C378.723442,72.6874529 382.356218,65.8672086 389.62188,61.6484375 C393.606274,59.351551 399.465591,57.7109424 407.200005,56.7265625 L414.020317,55.8828125 Z M426.18438,65.234375 C424.918748,66.031254 423.641417,66.6757788 422.352348,67.1679688 C421.063279,67.6601587 419.293766,68.1171854 417.043755,68.5390625 L412.543755,69.3828125 C408.324983,70.1328163 405.301576,71.0468696 403.473442,72.125 C400.379677,73.9531341 398.832817,76.7890433 398.832817,80.6328125 C398.832817,84.0547046 399.782026,86.5273361 401.680473,88.0507812 C403.57892,89.5742264 405.887491,90.3359375 408.606255,90.3359375 C412.918776,90.3359375 416.891393,89.0703252 420.524223,86.5390625 C424.157054,84.0077998 426.043754,79.3906585 426.18438,72.6875 L426.18438,65.234375 Z" id="Path" fill="#57595B" sketch:type="MSShapeGroup"></path>
        <path d="M490.829691,78.03125 C491.251568,81.5937678 492.165621,84.1249925 493.571878,85.625 C496.056266,88.2968884 500.64997,89.6328125 507.353128,89.6328125 C511.290648,89.6328125 514.419523,89.0468809 516.739847,87.875 C519.060171,86.7031191 520.220316,84.9453242 520.220316,82.6015625 C520.220316,80.3515512 519.282825,78.6406309 517.407816,77.46875 C515.532807,76.2968691 508.571939,74.2812643 496.525003,71.421875 C487.853085,69.2656142 481.735959,66.5703287 478.173441,63.3359375 C474.610923,60.1484216 472.829691,55.5547175 472.829691,49.5546875 C472.829691,42.4765271 475.607007,36.3945567 481.161722,31.3085938 C486.716437,26.2226308 494.532766,23.6796875 504.610941,23.6796875 C514.173489,23.6796875 521.96638,25.5898246 527.989847,29.4101562 C534.013315,33.2304879 537.470311,39.8280781 538.360941,49.203125 L518.321878,49.203125 C518.040627,46.6249871 517.314072,44.585945 516.142191,43.0859375 C513.939055,40.3671739 510.189092,39.0078125 504.892191,39.0078125 C500.532794,39.0078125 497.427356,39.6874932 495.575785,41.046875 C493.724213,42.4062568 492.798441,43.9999909 492.798441,45.828125 C492.798441,48.1250115 493.782806,49.7890573 495.751566,50.8203125 C497.720326,51.8984429 504.681194,53.7499869 516.634378,56.375 C524.603168,58.2500094 530.579671,61.0859185 534.564066,64.8828125 C538.501586,68.7265817 540.470316,73.5312212 540.470316,79.296875 C540.470316,86.890663 537.646125,93.0898197 531.99766,97.8945312 C526.349194,102.699243 517.618812,105.101562 505.806253,105.101562 C493.759318,105.101562 484.864876,102.558619 479.12266,97.4726562 C473.380443,92.3866933 470.509378,85.9062894 470.509378,78.03125 L490.829691,78.03125 Z" id="Path" fill="#57595B" sketch:type="MSShapeGroup"></path>
        <path d="M538.827759,40.8359375 L533.031253,26.5625 L543.718753,26.5625 L543.718753,1.0579834 L563.546878,1.0579834 L563.546878,26.5 L574.114135,26.5 L574.114135,40.9674072 L563.546878,40.8359375 L563.546878,81.3359375 C563.546878,84.4765782 563.945311,86.4335899 564.74219,87.2070313 C565.539069,87.9804726 567.976545,88.3671875 572.05469,88.3671875 C572.664068,88.3671875 573.308593,88.3554689 573.988284,88.3320313 C574.667975,88.3085936 575.335937,88.2734377 575.99219,88.2265625 L575.99219,103.554688 L566.500003,103.554688 C557.031206,103.882814 550.56252,102.242206 547.093753,98.6328125 C544.843742,96.335926 543.718753,92.7968989 543.718753,88.015625 L543.718753,46.8970947 L543.718753,40.8359375" id="Path" fill="#57595B" sketch:type="MSShapeGroup"></path>
        <path d="M594.432528,26.5 L594.428127,72.3174933 C594.428127,76.6412357 594.943747,79.8956167 595.975002,82.0807338 C597.803136,85.9395577 601.389038,87.8689408 606.732815,87.8689408 C613.576599,87.8689408 618.264052,85.1259625 620.795315,79.6399237 C622.107821,76.664445 622.764065,72.7359423 622.764065,67.8542976 L622.764065,26.5 L643.084377,26.5 L643.084377,103.595703 L623.607815,103.595703 L623.607815,91.774237 C623.420314,92.0066963 622.951569,92.7040636 622.201565,93.86636 C621.451561,95.0286563 620.560945,96.0514618 619.52969,96.934807 C616.389049,99.7243183 613.353923,101.630456 610.424221,102.653276 C607.494519,103.676097 604.060959,104.1875 600.12344,104.1875 C588.779633,104.1875 581.139084,100.142769 577.201565,92.0531867 C574.998429,87.5899687 573.896877,81.01147 573.896877,72.3174933 L573.896877,26.5 L594.432528,26.5 Z" id="Path" fill="#57595B" sketch:type="MSShapeGroup"></path>
        <path d="M697.450002,37.5625 L697.450002,1 L717.770314,1 L717.770314,103.796875 L698.293752,103.796875 L698.293752,93.8828125 C695.434362,98.4297102 692.324708,100.834839 690.076783,101.960388 C683.799492,105.103465 678.262707,104.894531 677.179933,104.894531 C668.226763,104.894531 658.391439,103.269567 652.27422,96.0273438 C646.157002,88.78512 643.098439,79.4922442 643.098439,68.1484375 C643.098439,55.0702471 646.110128,44.7812875 652.133595,37.28125 C658.157063,29.7812125 666.207764,26.03125 676.285939,26.03125 C680.926587,26.03125 685.051546,27.0507711 688.660939,29.0898437 C692.270332,31.1289164 695.19999,33.953107 697.450002,37.5625 Z M698.012502,65.3046875 C698.012502,55.9296406 695.645338,49.2265827 690.910939,45.1953125 C688.004675,42.7578003 684.629708,41.5390625 680.785939,41.5390625 C674.926535,41.5390625 670.625797,43.7538841 667.883595,48.1835938 C665.141394,52.6133034 663.770314,58.1093422 663.770314,64.671875 C663.770314,71.7500354 665.164832,77.410135 667.953908,81.6523438 C670.742984,85.8945525 674.973411,88.015625 680.645314,88.015625 C686.317218,88.015625 690.629674,85.9062711 693.582814,81.6875 C696.535954,77.4687289 698.012502,72.007846 698.012502,65.3046875 Z" id="Path" fill="#57595B" sketch:type="MSShapeGroup"></path>
        <path d="M741.182814,19.4921875 L720.862501,19.4921875 L720.862501,1 L741.182814,1 L741.182814,19.4921875 Z" id="Path" fill="#57595B" sketch:type="MSShapeGroup"></path>
        <path d="M720.862501,27.859375 L741.182814,27.859375 L741.182814,103.595703 L720.862501,103.595703 L720.862501,27.859375 Z" id="Path" fill="#57595B" sketch:type="MSShapeGroup"></path>
        <path d="M781.642188,105.171875 C768.470247,105.171875 758.650033,101.175821 752.181251,93.1835938 C745.712468,85.1913663 742.478126,75.5703688 742.478126,64.3203125 C742.478126,53.2577572 745.712468,43.6719155 752.181251,35.5625 C758.650033,27.4530845 768.470247,23.3984375 781.642188,23.3984375 C794.814129,23.3984375 804.634343,27.4530845 811.103126,35.5625 C817.571908,43.6719155 820.806251,53.2577572 820.806251,64.3203125 C820.806251,75.5703688 817.571908,85.1913663 811.103126,93.1835938 C804.634343,101.175821 794.814129,105.171875 781.642188,105.171875 Z M795.071876,82.109375 C798.212516,77.9374791 799.782813,72.0078509 799.782813,64.3203125 C799.782813,56.6327741 798.212516,50.7148645 795.071876,46.5664062 C791.931235,42.417948 787.43128,40.34375 781.571876,40.34375 C775.712471,40.34375 771.200798,42.417948 768.036719,46.5664062 C764.872641,50.7148645 763.290626,56.6327741 763.290626,64.3203125 C763.290626,72.0078509 764.872641,77.9374791 768.036719,82.109375 C771.200798,86.2812709 775.712471,88.3671875 781.571876,88.3671875 C787.43128,88.3671875 791.931235,86.2812709 795.071876,82.109375 L795.071876,82.109375 Z" id="Path" fill="#57595B" sketch:type="MSShapeGroup"></path>
        <path d="M836.359375,78.03125 C836.781252,81.5937678 837.695305,84.1249925 839.101562,85.625 C841.58595,88.2968884 846.179654,89.6328125 852.882812,89.6328125 C856.820332,89.6328125 859.949207,89.0468809 862.269531,87.875 C864.589855,86.7031191 865.75,84.9453242 865.75,82.6015625 C865.75,80.3515512 864.812509,78.6406309 862.9375,77.46875 C861.062491,76.2968691 854.101623,74.2812643 842.054688,71.421875 C833.382769,69.2656142 827.265643,66.5703287 823.703125,63.3359375 C820.140607,60.1484216 818.359375,55.5547175 818.359375,49.5546875 C818.359375,42.4765271 821.136691,36.3945567 826.691406,31.3085938 C832.246122,26.2226308 840.06245,23.6796875 850.140625,23.6796875 C859.703173,23.6796875 867.496064,25.5898246 873.519531,29.4101562 C879.542999,33.2304879 882.999996,39.8280781 883.890625,49.203125 L863.851562,49.203125 C863.570311,46.6249871 862.843756,44.585945 861.671875,43.0859375 C859.468739,40.3671739 855.718776,39.0078125 850.421875,39.0078125 C846.062478,39.0078125 842.957041,39.6874932 841.105469,41.046875 C839.253897,42.4062568 838.328125,43.9999909 838.328125,45.828125 C838.328125,48.1250115 839.31249,49.7890573 841.28125,50.8203125 C843.25001,51.8984429 850.210878,53.7499869 862.164062,56.375 C870.132852,58.2500094 876.109355,61.0859185 880.09375,64.8828125 C884.03127,68.7265817 886,73.5312212 886,79.296875 C886,86.890663 883.175809,93.0898197 877.527344,97.8945312 C871.878878,102.699243 863.148497,105.101562 851.335938,105.101562 C839.289002,105.101562 830.39456,102.558619 824.652344,97.4726562 C818.910128,92.3866933 816.039062,85.9062894 816.039062,78.03125 L836.359375,78.03125 Z" id="Path" fill="#57595B" sketch:type="MSShapeGroup"></path>
    </g>
</svg>